<?xml version="1.0" standalone="no"?>
<!DOCTYPE svg PUBLIC "-//W3C//DTD SVG 20010904//EN"
 "http://www.w3.org/TR/2001/REC-SVG-20010904/DTD/svg10.dtd">
<svg version="1.0" xmlns="http://www.w3.org/2000/svg"
 width="512.000000pt" height="512.000000pt" viewBox="0 0 512.000000 512.000000"
 preserveAspectRatio="xMidYMid meet">
<metadata>
Created by potrace 1.14, written by Peter Selinger 2001-2017
</metadata>
<g transform="translate(0.000000,512.000000) scale(0.100000,-0.100000)"
fill="#000000" stroke="none">
<path d="M702 4854 c-118 -35 -221 -171 -256 -338 -8 -37 -16 -70 -18 -72 -2
-2 -22 -6 -44 -9 -184 -28 -312 -135 -365 -306 -18 -59 -19 -118 -17 -1877 l3
-1817 28 -48 c31 -52 88 -99 145 -118 29 -10 366 -13 1532 -13 l1495 0 53 24
c65 28 125 94 142 156 10 35 13 184 13 630 1 563 0 584 -19 605 -10 12 -29 25
-41 30 -22 8 -23 13 -23 141 l1 133 285 195 c157 107 330 227 384 265 55 39
134 94 177 123 242 165 600 414 616 427 9 8 19 15 22 15 11 0 179 125 212 158
60 60 88 133 88 232 0 63 -5 95 -19 125 -34 73 -250 377 -294 414 -98 83 -250
103 -362 48 -30 -15 -80 -45 -110 -67 -30 -23 -107 -76 -170 -120 -116 -79
-312 -215 -645 -446 l-180 -125 -3 93 c-2 64 1 94 9 97 6 2 25 16 42 30 l30
27 1 270 c1 338 -4 387 -51 471 -41 75 -73 111 -135 153 -64 42 -130 68 -196
74 -24 2 -45 6 -46 7 -2 2 -11 39 -20 81 -57 257 -244 398 -422 318 -104 -47
-191 -177 -221 -329 l-15 -76 -127 2 c-69 1 -129 2 -132 2 -4 1 -9 20 -13 44
-18 115 -86 252 -157 311 -189 160 -427 27 -494 -276 -9 -43 -22 -78 -29 -79
-15 -1 -194 -1 -226 0 -23 1 -27 7 -38 69 -44 237 -222 394 -390 346z m128
-190 c54 -46 98 -152 105 -253 l4 -61 -85 0 c-60 0 -84 3 -84 13 0 6 -10 25
-23 40 -22 28 -30 30 -134 36 -8 1 -8 13 1 49 46 172 134 244 216 176z m937 2
c56 -47 110 -187 108 -281 l0 -30 -81 -3 -81 -3 -13 31 c-15 37 -42 53 -95 56
-22 2 -45 3 -51 3 -16 1 0 70 31 139 48 106 120 140 182 88z m933 4 c56 -40
106 -160 112 -265 l3 -50 -89 -2 c-49 -1 -86 0 -83 4 11 10 -22 61 -45 69 -13
5 -39 9 -58 10 -19 1 -41 2 -48 3 -29 2 29 158 79 212 42 45 83 52 129 19z"/>
</g>
</svg>
